# xmcd
#
# Track frame offsets:
#	150
#	12560
#	28443
#	44835
#	61210
#	74829
#	92804
#	108092
#	125491
#	141387
#	157398
#	171546
#	186755
#	203473
#	221674
#	237120
#	257300
#	270833
#	287133
#	304778
#	320862
#
# Disc length: 4479 seconds
#
# Revision: 1
# Processed by: cddbd v1.4PL0 Copyright (c) Steve Scherf et al.
# Submitted via: audiograbber 1.80
#
DISCID=4c117d15
DTITLE=Various Artist - Hott Country 052
DYEAR=1900
DGENRE=
TTITLE0=Danni Leigh - Honey I Do
TTITLE1=Lonestar - What About Now
TTITLE2=Rick Tippe - When You Say Jump
TTITLE3=Rascal Flatts - Prayin' For Daylight
TTITLE4=Brooks and Dunn - You'll Always Be Loved By Me
TTITLE5=Gary Allan - Lovin' You Against My WIll
TTITLE6=Sons Of The Desert - Change
TTITLE7=Lee Ann Womack - I Hope You Dance
TTITLE8=Tracy Byrd - Love, You Ain't Seen The Last Of Me
TTITLE9=Kinleys - She Ain't The Girl For You
TTITLE10=Charlie Robison - Poor Man's Son
TTITLE11=John Michael Montgomery - You Are
TTITLE12=L.J. Daylee - Natural Fact
TTITLE13=Vince Gill - Ley's Make Sure We Kiss Goodbye
TTITLE14=Neal McCoy - Forever Works For Me
TTITLE15=Reba McEntire - I'll Be
TTITLE16=Ricochet - Do I Love You Enough
TTITLE17=Warren Brothers - That's The Beat Of My Heart
TTITLE18=Trisha Yearwood - Real Live Woman
TTITLE19=Tammy Cochran - If You Can
TTITLE20=George Strait - The Best Day
EXTD=
EXTT0=
EXTT1=
EXTT2=
EXTT3=
EXTT4=
EXTT5=
EXTT6=
EXTT7=
EXTT8=
EXTT9=
EXTT10=
EXTT11=
EXTT12=
EXTT13=
EXTT14=
EXTT15=
EXTT16=
EXTT17=
EXTT18=
EXTT19=
EXTT20=
PLAYORDER=
